# xmcd
#
# Track frame offsets:
#	150
#	23882
#	44142
#	63235
#	77780
#	100310
#	113737
#	136817
#	156700
#	172467
#
# Disc length: 2583 seconds
#
# Revision: 0
# Processed by: cddbd v1.4PL0 Copyright (c) Steve Scherf et al.
# Submitted via: EasyCDDAExtractor 4.6.9.1
#
DISCID=900a150a
DTITLE=김수지 - 하나님을 느낌
DYEAR=1995
DGENRE=CCM
TTITLE0=영원한 사랑
TTITLE1=나의 삶
TTITLE2=대화
TTITLE3=날 향한 주님의 사랑
TTITLE4=주님만을
TTITLE5=하나님을 느낌
TTITLE6=상처
TTITLE7=용서
TTITLE8=기적
TTITLE9=밀알
EXTD=
EXTT0=
EXTT1=
EXTT2=
EXTT3=
EXTT4=
EXTT5=
EXTT6=
EXTT7=
EXTT8=
EXTT9=
PLAYORDER=
